<svg xmlns="http://www.w3.org/2000/svg" viewBox="0 0 960.5 549.73"><defs><style>.cls-1{fill:#b8e5fa;}.cls-2{fill:#3caec1;}.cls-3{fill:#5dc1a6;}.cls-4{fill:#21ac95;}.cls-5{fill:#3eb2b4;}.cls-6{fill:#36868d;}.cls-7{fill:#10abb7;}.cls-8{fill:#148da1;}.cls-9{fill:#4e5671;}.cls-10{fill:#00b3d0;}.cls-11{fill:#40c5eb;}.cls-12{fill:#00a7ca;}.cls-13{fill:#5ccae8;}.cls-14{fill:#1e85a2;}.cls-15{fill:#05a2c2;}.cls-16{fill:#40c4eb;}.cls-17{fill:#3ec5eb;}.cls-18{fill:#3fc6eb;}.cls-19{fill:#00a7cb;}.cls-20{fill:#1a85a3;}.cls-21{fill:#05a6ad;}.cls-22{fill:#5ccae9;}.cls-23{fill:#f6b11a;}.cls-24{fill:#f8a46c;}.cls-25{fill:#e28545;}.cls-26{fill:#dd5e26;}.cls-27{fill:#f9ae81;}.cls-28{fill:#e98a5a;}.cls-29{fill:#ef4338;}.cls-30{fill:#d61f43;}.cls-31{fill:#ec474b;}.cls-32{fill:#eb243c;}.cls-33{fill:#d41e44;}.cls-34{fill:#8e1834;}.cls-35{fill:#e1235f;}.cls-36{fill:#ef4658;}.cls-37{fill:#c5205d;}.cls-38{fill:#b94a92;}.cls-39{fill:#8b2571;}.cls-40{fill:#bf3c96;}.cls-41{fill:#b73692;}.cls-42{fill:#9c258d;}.cls-43{fill:#8f2679;}.cls-44{fill:#d173ac;}.cls-45{fill:#c04f9c;}.cls-46{fill:#782a7e;}.cls-47{fill:#bf3c95;}.cls-48{fill:#bf3e97;}.cls-49{fill:#ea233d;}.cls-50{fill:#ef4339;}.cls-51{fill:#ef4238;}.cls-52{fill:#f79321;}.cls-53{fill:#f47729;}.cls-54{fill:#f79553;}</style></defs><g id="Layer_2" data-name="Layer 2"><polygon class="cls-1" points="857.45 487.01 960.85 458.84 960.85 426.64 911.3 368.78 857.45 487.01"/><polygon class="cls-2" points="879.35 331.28 911.3 368.78 857.45 487.01 879.35 331.28"/><polygon class="cls-3" points="960.85 267.58 911.3 368.78 960.85 426.64 960.85 267.58"/><polygon class="cls-4" points="960.85 184.32 957.75 182.81 879.35 331.28 911.3 368.78 960.85 267.58 960.85 184.32"/><polygon class="cls-5" points="903.25 158.99 957.75 182.81 879.35 331.28 903.25 158.99"/><polygon class="cls-6" points="960.85 162.98 951.12 179.91 960.85 184.32 960.85 162.98"/><polygon class="cls-7" points="960.85 -0.32 927.9 -0.32 903.25 158.99 951.12 179.91 960.85 162.98 960.85 -0.32"/><polygon class="cls-8" points="733.37 -0.32 715.26 5.21 921.74 39.48 927.9 -0.32 733.37 -0.32"/><polygon class="cls-9" points="750.14 36.57 921.74 39.48 715.26 5.21 750.14 36.57"/><polygon class="cls-10" points="857.13 139.21 903.25 158.99 921.74 39.48 750.14 36.57 857.13 139.21"/><polygon class="cls-11" points="613.63 33.72 750.14 36.57 857.13 139.21 613.63 33.72"/><polygon class="cls-12" points="715.26 5.21 613.63 33.72 750.14 36.57 715.26 5.21"/><polygon class="cls-13" points="592 -0.32 613.63 33.72 715.26 5.21 688.76 -0.32 592 -0.32"/><polygon class="cls-14" points="711.69 -0.32 715.26 5.21 688.76 -0.32 711.69 -0.32"/><polygon class="cls-15" points="733.37 -0.32 715.26 5.21 711.69 -0.32 733.37 -0.32"/><polygon class="cls-16" points="650.19 80.64 650.19 124.16 688.3 94.97 650.19 80.64"/><polygon class="cls-17" points="625.04 181 642.52 192.58 654.47 168.55 625.04 181"/><polygon class="cls-18" points="701.25 240.37 695.97 264.27 711.44 258.36 701.25 240.37"/><polygon class="cls-19" points="673.36 191.82 782.19 106.74 816.44 121.58 748.67 204.9 673.36 191.82"/><polygon class="cls-20" points="893.39 230.07 748.67 204.9 816.44 121.58 903.25 158.99 893.39 230.07"/><polygon class="cls-21" points="886.41 280.38 893.39 230.07 748.67 204.9 737.86 219.24 886.41 280.38"/><polygon class="cls-22" points="673.36 191.82 737.86 219.24 748.67 204.9 673.36 191.82"/></g><g id="Layer_3" data-name="Layer 3"><polygon class="cls-23" points="133.4 494.26 146.04 479.48 146.04 520.74 133.4 494.26"/><polygon class="cls-24" points="0.81 482.88 23.5 477.87 0.81 447.7 0.81 482.88"/><polygon class="cls-24" points="106.55 462.85 23.5 477.87 0.81 447.7 0.81 427.73 106.55 462.85"/><polygon class="cls-25" points="0.81 360.32 106.55 462.85 0.81 427.73 0.81 360.32"/><polygon class="cls-26" points="6.29 331.29 0.81 339.73 0.81 360.32 106.55 462.85 6.29 331.29"/><polygon class="cls-27" points="56.69 242.36 0.81 339.73 0.81 273.44 56.69 242.36"/><polygon class="cls-28" points="0.81 178.5 0.81 273.44 56.69 242.36 0.81 178.5"/><polygon class="cls-29" points="5.66 137.03 0.81 141 0.81 178.5 56.69 242.36 5.66 137.03"/><polygon class="cls-30" points="0.81 127.33 5.66 137.03 0.81 141 0.81 127.33"/><polygon class="cls-31" points="63.45 81.62 56.69 242.36 5.66 137.03 63.45 81.62"/><polygon class="cls-32" points="0.81 37.82 63.45 81.62 5.66 137.03 0.81 127.33 0.81 37.82"/><polygon class="cls-33" points="69.49 24.63 48.58 0.54 0.81 0.54 0.81 37.82 63.45 81.62 69.49 24.63"/><polygon class="cls-34" points="71.99 0.54 69.49 24.63 48.58 0.54 71.99 0.54"/><polygon class="cls-35" points="105.46 0.54 71.99 0.54 69.49 24.63 113.97 74.55 105.46 0.54"/><polygon class="cls-36" points="63.45 81.62 113.97 74.55 69.49 24.63 63.45 81.62"/><polygon class="cls-37" points="168.42 0.54 113.97 74.55 105.46 0.54 168.42 0.54"/><polygon class="cls-38" points="235.91 0.54 168.42 0.54 157.94 14.79 175.41 42.95 235.91 0.54"/><polygon class="cls-39" points="243.74 0.54 235.91 0.54 175.41 42.95 198.03 81.19 243.74 0.54"/><polygon class="cls-40" points="158.4 14.16 139.33 40.08 198.03 81.19 158.4 14.16"/><polygon class="cls-41" points="252.08 0.54 243.74 0.54 198.03 81.19 266.69 34.96 252.08 0.54"/><polygon class="cls-42" points="322.91 0.54 266.69 34.96 252.08 0.54 322.91 0.54"/><polygon class="cls-42" points="284.39 99.95 251.37 45.28 266.69 34.96 290.65 95.36 284.39 99.95"/><polygon class="cls-43" points="309.85 142.93 284.39 99.95 290.65 95.36 309.85 142.93"/><polygon class="cls-44" points="323.43 72.78 290.65 95.36 309.85 142.93 323.43 72.78"/><polygon class="cls-45" points="333.7 14.28 322.91 0.54 266.69 34.96 290.65 95.36 323.43 72.78 333.7 14.28"/><polygon class="cls-46" points="382.01 0.54 357.55 46.11 322.91 0.54 382.01 0.54"/><polygon class="cls-47" points="242.24 105.79 252.02 99.95 252.92 117.42 242.24 105.79"/><path class="cls-48" d="M140,82.18s-6.14,25.34-5.73,25.1,29.28-20,29.28-20Z"/><polygon class="cls-49" points="89.2 136.1 121.16 179.24 82.21 205.63 89.2 136.1"/><polygon class="cls-50" points="149.7 209.6 142.78 219.86 152.48 224.31 149.7 209.6"/><polygon class="cls-51" points="72.19 285.44 74.66 327.09 111.54 284.73 72.19 285.44"/><polygon class="cls-52" points="94.05 370.02 137.53 423.68 176.56 390.37 94.05 370.02"/><polygon class="cls-53" points="105.18 405.15 102.32 413.26 113.45 411.58 105.18 405.15"/><polygon class="cls-42" points="378.63 67.79 336.26 108.65 381.57 121.45 378.63 67.79"/><polygon class="cls-41" points="202.7 144.8 194.61 178.76 222.99 168.51 202.7 144.8"/><polygon class="cls-32" points="146.69 334.96 155.74 318.27 166.95 328.29 146.69 334.96"/><polygon class="cls-54" points="0.81 481.94 23.5 477.87 0.81 447.7 0.81 481.94"/></g></svg>