<svg xmlns="http://www.w3.org/2000/svg" viewBox="0 0 443.77 104.37"><defs><style>.cls-1{fill:#2ea2b6;}.cls-2{fill:#f9ad82;}.cls-3{fill:#111;}.cls-4{fill:#090909;}.cls-5{fill:#0b0b0b;}.cls-6{fill:#0e0e0e;}.cls-7{fill:#101010;}.cls-8{fill:#0f0f0f;}.cls-9{fill:#262626;}</style></defs><g id="Layer_2" data-name="Layer 2"><g id="Layer_1-2" data-name="Layer 1"><path class="cls-1" d="M167.05,2.26c-6.29,32.64-12.36,64.16-18.54,96.26L73,68.2Z"/><path class="cls-2" d="M78.06,60.14,19.86,98.49,0,32.34Z"/><path class="cls-3" d="M248.17,39.59C254.82,26.3,261,13.85,267.26,1.41l.94.17,6.86,46.72-4.91.38c-1.51-10.45-3-20.71-4.48-31l-1-.23c-5.25,10.42-10.5,20.83-16.44,32.63-5.95-11.72-11.32-22.32-16.7-32.93l-1,.26C229,27.72,227.57,38,226.11,48.38h-4.92c2.29-15.72,4.53-31.17,6.78-46.62l1-.32Z"/><path class="cls-4" d="M347.33,27.27l16.14,20.8c-4.24,1.35-6.64,0-8.85-3.16-3.61-5.19-7.68-10.07-11.65-15-1-1.28-2.45-1.53-4.59-3.43V48.21h-5.05v-47c6.51.29,12.81.24,19,.93,6.92.77,10.8,5.48,10.78,12.1s-3.85,11-10.76,12.2Zm-9-5.12a96.48,96.48,0,0,0,13.42-.66c4-.55,6.08-3.34,6.11-7.27s-2.14-6.75-6.06-7.28c-4.47-.6-9-.56-13.47-.79Z"/><path class="cls-5" d="M272.37,55.71l31.51,35.67V57.19l4.77-.31v47.18L277.23,68.68v34.1l-4.86.31Z"/><path class="cls-6" d="M443.05,20.69V25.5h-21.7V43.57H443c.17,1.75.31,3.15.47,4.8h-27V1.6h26.89c.12,1.34.26,2.73.43,4.57H421.42V20.69Z"/><path class="cls-7" d="M186.25,57.44c6.69,0,13.32-.44,19.87.14,5.36.47,8.88,5.31,9.13,10.86.27,6.17-2.45,10.76-8.2,12-5.13,1.11-10.49,1.17-16.1,1.73V102.8l-4.7.23Zm4.88,19.63c4.53-.2,8.53-.15,12.47-.61s6.32-2.94,6.47-7-2-6.8-6-7.32c-4.2-.55-8.48-.46-13-.66Z"/><path class="cls-6" d="M213.38,7.61l-4.26,3.53c-1.81-1.62-3.31-3.44-5.21-4.57-3-1.75-6.19-1.74-8.62,1.06s-1.72,6,.59,8.56a56.73,56.73,0,0,0,6.1,5.09,84.91,84.91,0,0,1,7.25,6.09c5.59,5.79,5.86,13.09,1,18.32a14.38,14.38,0,0,1-19.82.54c-1.8-1.65-3.15-3.78-5-6.08l4.12-2.81a62.94,62.94,0,0,0,4.43,5.12c3.7,3.47,8.68,3.38,12,0,3.12-3.18,3.18-7.36-.57-11-4-3.94-8.7-7.21-12.84-11a11.74,11.74,0,0,1-2.2-15A11.83,11.83,0,0,1,205.4,1.5C208.12,2.89,210.35,5.25,213.38,7.61Z"/><path class="cls-8" d="M365.77,66.15c-2.2-1.8-3.81-4.1-5.82-4.51-2.41-.49-6.1-.22-7.45,1.3s-1,5.22-.09,7.48c.74,1.93,3.22,3.2,5,4.7,2.92,2.47,6.16,4.62,8.76,7.39,5.26,5.6,5.34,12.47.63,17.5a14.12,14.12,0,0,1-18.64,1.18c-2.11-1.75-3.71-4.12-5.86-6.58l4.2-2.75c1.14,1.42,2.1,2.76,3.21,4,3.88,4.3,9,4.72,12.74,1.12,3.49-3.35,3.25-7.45-1.12-11.73a105.78,105.78,0,0,0-9.2-7.66c-4.49-3.48-7.59-7.55-6.18-13.64,1-4.32,3.83-6.82,8.07-7.91,6-1.55,10.29,1.14,14,5.46.42.5.76,1.07,1.26,1.79Z"/><path class="cls-7" d="M303,0l22.66,48c-3.31,1.37-4.92.27-6.21-2.49C314.8,35.6,310,25.77,305.15,15.91c-.56-1.16-1.24-2.27-2.33-4.24-4.46,9.42-8.6,18.13-12.73,26.85a65.75,65.75,0,0,0-2.92,6.33c-1.22,3.53-3.41,4.61-7.14,3.22Z"/><path class="cls-9" d="M330.85,103.19l-5.4-.31V61.82h-10V57h25.38c.12,1.35.24,2.73.41,4.62H330.85Z"/><path class="cls-8" d="M379,6.31H368.53l-.26-4.63h26c.13,1.22.28,2.61.47,4.42H384.12V48.34H379Z"/><path class="cls-6" d="M400.45,48.3V1.66l4.61-.24V48.3Z"/><path class="cls-7" d="M242.76,55.72l22.66,48c-3.3,1.37-4.92.26-6.21-2.49-4.67-9.92-9.52-19.75-14.32-29.61-.56-1.16-1.24-2.27-2.33-4.24-4.46,9.41-8.6,18.13-12.72,26.85a63.5,63.5,0,0,0-2.93,6.33c-1.22,3.53-3.4,4.6-7.13,3.22C227.22,88.21,234.66,72.66,242.76,55.72Z"/></g></g></svg>